#!OML:ASF F:\VICON\USERDATA\INSTALL\rory3\rory3.ASF
:FULLY-SPECIFIED
:DEGREES
132
root -1.23163 14.6248 25.564 13.3628 -6.78868 4.08552
lowerback -6.79565 -2.59367 -5.26849
upperback -6.02005 -3.24545 -0.542129
thorax -2.18082 -1.47274 2.22494
lowerneck -12.7315 0.0311659 -2.94475
upperneck 19.865 -0.204415 3.99018
head 8.26492 0.0734857 1.80227
rclavicle 3.26116e-014 1.71949e-014
rhumerus -62.4051 4.15658 -77.6827
rradius 49.3162
rwrist 0.961013
rhand -8.23059 107.682
rfingers 7.12502
rthumb 17.687 136.898
lclavicle 3.26116e-014 1.71949e-014
lhumerus -33.1666 -13.8095 82.5883
lradius 51.3237
lwrist 21.4687
lhand -33.415 -38.6306
lfingers 7.12502
lthumb -6.61487 -8.75393
rfemur -75.3059 11.0034 10.1991
rtibia 86.4554
rfoot -15.0441 -28.8486
rtoes 11.7792
lfemur -0.0165783 4.46307 -31.227
ltibia 42.4281
lfoot -32.8282 6.50371
ltoes -26.5735
133
root -1.26075 14.6357 26.0634 13.9566 -5.16094 4.01162
lowerback -7.72061 -3.37139 -5.10845
upperback -6.10935 -4.22481 -0.0707786
thorax -1.66562 -1.97186 2.51125
lowerneck -13.1047 0.131759 -2.87511
upperneck 19.7833 0.0737028 3.33238
head 8.29646 0.147283 1.60112
rclavicle -3.30712e-015 -6.33626e-015
rhumerus -61.5022 4.3577 -78.8221
rradius 50.089
rwrist 1.57296
rhand -8.25109 107.881
rfingers 7.12502
rthumb 17.6672 137.098
lclavicle -3.30712e-015 -6.33626e-015
lhumerus -31.6388 -15.7697 84.9293
lradius 53.8398
lwrist 22.8971
lhand -32.9263 -36.6079
lfingers 7.12502
lthumb -6.14305 -6.71692
rfemur -76.4076 9.06531 10.8683
rtibia 82.4953
rfoot -12.9529 -27.4464
rtoes 8.30365
lfemur 2.36466 3.28806 -30.4799
ltibia 40.0846
lfoot -30.2551 4.67072
ltoes -27.6241
134
root -1.28825 14.6632 26.5784 14.7247 -3.37478 3.52758
lowerback -8.69945 -4.12953 -4.47658
upperback -6.41578 -5.21756 0.572802
thorax -1.36261 -2.48098 2.69067
lowerneck -13.4428 0.173191 -2.89627
upperneck 19.9311 0.283189 2.68421
head 8.40305 0.180251 1.41353
rclavicle 6.3375e-014 1.6201e-014
rhumerus -60.8271 4.80939 -79.8746
rradius 50.6653
rwrist 2.57537
rhand -7.61721 107.979
rfingers 7.12502
rthumb 18.2771 137.14
lclavicle 6.3375e-014 1.6201e-014
lhumerus -30.4778 -17.6836 87.1676
lradius 56.4311
lwrist 24.2234
lhand -33.7021 -37.3702
lfingers 7.12502
lthumb -6.892 -7.50236
rfemur -77.2223 7.29587 11.9546
rtibia 78.4742
rfoot -11.4297 -25.6809
rtoes 5.43895
lfemur 4.42823 2.01437 -29.234
ltibia 37.9468
lfoot -27.2401 2.9982
ltoes -29.2145
135
root -1.30028 14.6971 27.1079 14.3251 -1.91009 2.72343
lowerback -8.6642 -4.55094 -3.30222
upperback -6.446 -5.85164 1.14618
thorax -1.41105 -2.82347 2.581
lowerneck -13.3437 0.160246 -3.25937
upperneck 19.8214 0.399265 2.43792
head 8.34506 0.18261 1.40255
rclavicle -5.09386e-014 -6.16232e-015
rhumerus -60.3095 5.16623 -80.8279
rradius 50.986
rwrist 3.16234
rhand -7.2252 107.945
rfingers 7.12502
rthumb 18.6542 137.07
lclavicle -5.09386e-014 -6.16232e-015
lhumerus -29.4911 -19.8232 89.3939
lradius 58.9397
lwrist 25.2153
lhand -33.6338 -36.5226
lfingers 7.12502
lthumb -6.8261 -6.65265
rfemur -76.6654 5.99486 13.4747
rtibia 74.5231
rfoot -8.13105 -23.5834
rtoes 0.457365
lfemur 7.60591 1.23227 -27.7195
ltibia 36.1124
lfoot -23.6336 1.62913
ltoes -30.6428
136
root -1.29697 14.7496 27.6025 14.7919 0.193135 2.27869
lowerback -8.93072 -5.19479 -2.09516
upperback -6.72742 -6.77662 1.60384
thorax -1.57464 -3.31251 2.30074
lowerneck -13.1903 0.22103 -3.60972
upperneck 19.4034 0.593976 2.2839
head 8.171 0.23597 1.4254
rclavicle 1.48219e-014 -3.97569e-016
rhumerus -59.5556 5.55635 -81.9307
rradius 51.2937
rwrist 3.44495
rhand -7.43757 108.058
rfingers 7.12502
rthumb 18.4499 137.203
lclavicle 1.48219e-014 -3.97569e-016
lhumerus -28.2109 -22.2382 91.1655
lradius 61.3746
lwrist 26.1686
lhand -32.9675 -36.507
lfingers 7.12502
lthumb -6.18286 -6.61721
rfemur -76.9436 3.7646 14.5632
rtibia 70.4897
rfoot -4.63746 -21.1556
rtoes -1.48815
lfemur 9.21188 -0.17505 -26.4389
ltibia 34.7946
lfoot -18.8098 -0.0485441
ltoes -29.8884
137
root -1.32325 14.7975 28.1187 15.3846 1.19018 1.68139
lowerback -9.86232 -5.50589 -1.28616
upperback -6.88155 -7.22822 2.10662
thorax -1.2375 -3.55866 2.25097
lowerneck -14.0045 0.163946 -3.51166
upperneck 19.8372 0.674457 1.58084
head 8.46758 0.207785 1.19093
rclavicle -1.81143e-014 -2.5842e-014
rhumerus -58.7233 6.00926 -83.0338
rradius 51.7266
rwrist 4.17224
rhand -7.69422 108.342
rfingers 7.12502
rthumb 18.203 137.51
lclavicle -1.81143e-014 -2.5842e-014
lhumerus -26.7094 -24.8295 92.5156
lradius 63.662
lwrist 27.0984
lhand -33.4146 -36.2744
lfingers 7.12502
lthumb -6.6145 -6.39768
rfemur -77.3619 3.18667 15.2977
rtibia 66.3271
rfoot -1.16045 -19.3987
rtoes -1.73747
lfemur 10.1915 -0.604484 -25.1088
ltibia 33.9673
lfoot -13.9875 -1.20623
ltoes -30.5441
138
root -1.34285 14.8376 28.6266 15.8838 1.99992 1.17829
lowerback -10.4539 -5.66503 -0.392428
upperback -7.19552 -7.50128 2.52493
thorax -1.28955 -3.71447 2.12786
lowerneck -15.4008 -0.0450854 -3.08011
upperneck 20.9681 0.600709 0.410157
head 9.12129 0.0685214 0.726324
rclavicle -7.87684e-015 1.35174e-014
rhumerus -58.0563 6.48095 -84.0749
rradius 51.7932
rwrist 4.53046
rhand -8.25047 108.359
rfingers 7.12502
rthumb 17.6678 137.576
lclavicle -7.87684e-015 1.35174e-014
lhumerus -25.4052 -27.1742 93.8588
lradius 65.7417
lwrist 27.783
lhand -32.8412 -35.877
lfingers 7.12502
lthumb -6.06089 -5.9837
rfemur -77.5888 2.81407 15.8383
rtibia 62.3019
rfoot 1.80068 -17.8658
rtoes -2.01621
lfemur 10.9214 -0.841171 -23.8931
ltibia 33.5261
lfoot -8.80066 -2.3183
ltoes -29.8184
